. 
 
http://www.torrenting.com          :     Once & For all ;)


               www . Torrenting . Com 

(((((((((((((= Enjoy No RAR releases =))))))))))))))))))))


...................................NFO:....................................

.                                                                                                     
       
     
     
       
       
     
     
                                         
                                         
                EXVID                    
                                         
         
                                         
         Filled the Archives             
                                         
         
                                         
                With:                    
                                         
         
                                         
                                    
     E240                           
                                    
     SP               (C) 2009      
                                         
     
     
     
                                                                                  
                                                                                   
                 Space.Truckers.1996.iNTERNAL.DVDRip.XviD-EXViDiNT                  
                                                                                   
                                                                                  
     
                                                                                               
EXViD aims to iNTERNAL those releases which have been lost in the archives.
EXViD aims to PRE non-internal releases which have poor sources and are likely skipped by others. 
http://www.imdb.com/title/tt0120199/
Subtitles: 
Date: 2012.01

Director: Stuart Gordon

Genres: Adventure | Comedy | Sci-Fi | Thriller

Plot:
John Canyon is one of the last independent space transport entrepreneurs. Rough times force him
to carry suspicious cargo to Earth without questions being asked. During the flight the cargo
turns out to be multitude of unstoppable and deadly killer robots.

Cast:
Tim Loane	...	Trooper Officer
Ian Beattie	...	Trooper
Olwen Fouere	...	Building Commander
Shane Rimmer	...	E. J. Saggs
Charles Dance	...	Nabel / Macanudo
Roger Gregg	...	Tank Patrol
Denis Akiyama	...	Tech Leader
Seamus Flavin	...	Chopper 4
Jason O'Mara	...	Chopper 3
Dennis Hopper	...	John Canyon
Sandra Dickinson	...	Bitchin' Betty
George Wendt	...	Keller
Graeme Wilkinson	...	Jackie
Sean Lawlor	...	Mel
Debi Mazar	...	Cindy

Stats:
Format                                   : AVI
Format/Info                              : Audio Video Interleave
Format profile                           : OpenDML
File size                                : 1.36 GiB
Duration                                 : 1h 36mn
Overall bit rate                         : 2 027 Kbps

Video
ID                                       : 0
Format                                   : MPEG-4 Visual
Format profile                           : Advanced Simple@L5
Format settings, BVOP                    : 2
Format settings, QPel                    : No
Format settings, GMC                     : No warppoints
Format settings, Matrix                  : Default (MPEG)
Codec ID                                 : XVID
Codec ID/Hint                            : XviD
Duration                                 : 1h 36mn
Bit rate                                 : 1 829 Kbps
Width                                    : 640 pixels
Height                                   : 272 pixels
Display aspect ratio                     : 2.35:1
Frame rate                               : 23.976 fps
Color space                              : YUV
Chroma subsampling                       : 4:2:0
Bit depth                                : 8 bits
Scan type                                : Progressive
Compression mode                         : Lossy
Bits/(Pixel*Frame)                       : 0.438
Stream size                              : 1.23 GiB (90%)
Writing library                          : XviD 64

Audio
ID                                       : 1
Format                                   : AC-3
Format/Info                              : Audio Coding 3
Mode extension                           : CM (complete main)
Codec ID                                 : 2000
Duration                                 : 1h 36mn
Bit rate mode                            : Constant
Bit rate                                 : 192 Kbps
Channel(s)                               : 2 channels
Channel positions                        : Front: L R
Sampling rate                            : 48.0 KHz
Bit depth                                : 16 bits
Compression mode                         : Lossy
Delay relative to video                  : 42ms
Stream size                              : 132 MiB (9%)
Alignment                                : Split accross interleaves
Interleave, duration                     : 500 ms (11.99 video frames)
Interleave, preload duration             : 500 ms



Release notes:
Enjoy!

Looking for:
75TB+ Archives
DUTCH/FLEMiSH Archives
                                                                                                    
Greets: CRBS EPiSODE FiCO FLS iLS KLASSiGER LiPSYNC MADE NODLABS RUNNER SPRiNTER      
   

                                                                    ASCII DONE BY XX^NFO 2oo9     
 

RLS-Crc: 415243414445:42EECD90